<?xml version="1.0" standalone="no"?>
<!DOCTYPE svg PUBLIC "-//W3C//DTD SVG 20010904//EN"
 "http://www.w3.org/TR/2001/REC-SVG-20010904/DTD/svg10.dtd">
<svg version="1.0" xmlns="http://www.w3.org/2000/svg"
 width="155.000000pt" height="156.000000pt" viewBox="0 0 155.000000 156.000000"
 preserveAspectRatio="xMidYMid meet">

<g transform="translate(0.000000,156.000000) scale(0.100000,-0.100000)"
fill="#000000" stroke="none">
<path d="M20 1400 l0 -130 130 0 130 0 0 130 0 130 -130 0 -130 0 0 -130z
m220 0 l0 -90 -90 0 -90 0 0 90 0 90 90 0 90 0 0 -90z"/>
<path d="M97 1453 c-4 -3 -7 -28 -7 -55 l0 -48 55 0 55 0 0 55 0 55 -48 0
c-27 0 -52 -3 -55 -7z"/>
<path d="M317 1523 c-4 -3 -7 -19 -7 -35 0 -21 5 -28 20 -28 16 0 20 7 20 35
0 33 -16 46 -33 28z"/>
<path d="M390 1495 l0 -35 55 0 55 0 0 -40 c0 -33 -3 -40 -20 -40 -11 0 -20
-7 -20 -15 0 -8 9 -15 20 -15 11 0 20 7 20 15 0 8 7 15 15 15 8 0 15 9 15 20
0 13 7 20 20 20 11 0 20 7 20 15 0 8 -9 15 -20 15 -13 0 -20 7 -20 20 0 13 -7
20 -19 20 -12 0 -18 7 -17 17 0 10 -7 19 -16 21 -13 2 -18 -3 -18 -17 0 -14
-6 -21 -20 -21 -13 0 -20 7 -20 20 0 11 -7 20 -15 20 -10 0 -15 -11 -15 -35z"/>
<path d="M570 1495 c0 -29 4 -35 21 -35 15 0 20 5 17 18 -4 15 1 17 34 14 36
-4 38 -6 38 -38 0 -32 -2 -34 -35 -34 -33 0 -35 -2 -35 -35 l0 -35 56 0 c49 0
56 2 52 18 -4 15 5 17 104 14 103 -2 108 -1 108 18 0 11 -7 20 -15 20 -8 0
-15 7 -15 15 0 8 -9 15 -20 15 -11 0 -20 -6 -20 -14 0 -15 -25 -24 -51 -18
-32 6 -31 67 0 75 14 3 17 0 14 -14 -4 -14 0 -19 16 -19 12 0 21 6 21 15 0 10
11 15 35 15 28 0 35 4 35 20 0 18 -7 19 -105 19 -98 0 -105 -1 -105 -19 0 -13
-7 -20 -20 -20 -13 0 -20 7 -20 20 0 18 -7 20 -55 20 l-55 0 0 -35z"/>
<path d="M970 1510 c0 -16 7 -20 35 -20 28 0 35 4 35 20 0 16 -7 20 -35 20
-28 0 -35 -4 -35 -20z"/>
<path d="M1080 1491 c0 -34 -3 -41 -20 -41 -11 0 -20 -7 -20 -15 0 -8 -7 -15
-15 -15 -8 0 -15 7 -15 15 0 8 -9 15 -20 15 -11 0 -20 -7 -20 -15 0 -8 9 -15
20 -15 13 0 20 -7 20 -20 0 -17 -7 -20 -41 -20 -35 0 -41 -3 -36 -19 3 -14 0
-17 -14 -14 -16 5 -19 -1 -19 -36 0 -34 -3 -41 -20 -41 -17 0 -20 7 -20 41 0
33 -3 40 -17 37 -12 -2 -19 -14 -21 -36 -3 -27 1 -35 17 -39 43 -11 13 -45
-31 -35 -13 2 -18 16 -20 55 -3 51 -4 52 -35 55 -28 3 -33 0 -33 -17 0 -12 7
-21 15 -21 12 0 15 -13 15 -55 0 -42 -3 -55 -15 -55 -8 0 -15 -9 -15 -20 0
-16 7 -20 31 -20 22 0 32 5 36 20 3 11 11 20 18 20 7 0 15 -9 18 -20 3 -11 12
-20 21 -20 22 0 20 -30 -1 -31 -10 0 -34 -1 -53 -2 -24 -2 -36 -7 -38 -19 -3
-15 5 -18 52 -18 49 0 56 2 56 20 0 18 7 20 55 20 42 0 55 3 55 15 0 12 -13
15 -55 15 l-55 0 0 40 c0 33 3 40 20 40 13 0 20 -7 20 -20 0 -16 7 -20 35 -20
28 0 35 4 35 20 0 13 7 20 20 20 17 0 20 -7 20 -40 0 -29 4 -40 15 -40 11 0
15 11 15 40 0 33 3 40 20 40 13 0 20 -7 20 -20 0 -13 7 -20 20 -20 13 0 20 7
20 20 0 16 7 20 35 20 28 0 35 -4 35 -20 0 -13 -7 -20 -20 -20 -16 0 -20 -7
-20 -35 0 -24 -5 -35 -15 -35 -8 0 -15 7 -15 15 0 8 -9 15 -20 15 -11 0 -20
-6 -20 -14 0 -7 -9 -16 -20 -19 -25 -7 -26 -27 -1 -34 11 -3 21 -13 24 -24 7
-25 27 -24 34 1 8 29 68 28 76 -1 4 -15 11 -20 21 -16 11 5 16 0 16 -13 0 -11
7 -20 15 -20 10 0 15 11 15 35 0 33 -2 35 -35 35 -33 0 -35 2 -35 35 0 36 7
40 53 36 11 -2 17 5 17 18 0 14 6 21 20 21 13 0 20 -7 20 -20 0 -16 7 -20 35
-20 24 0 35 -5 35 -15 0 -8 -8 -15 -17 -16 -10 0 -33 -1 -52 -2 -39 -2 -54
-25 -22 -34 16 -4 21 -13 21 -39 0 -28 4 -34 21 -34 16 0 20 5 16 19 -3 14 0
17 14 14 16 -5 19 1 19 36 l0 41 40 0 c33 0 40 -3 40 -20 0 -16 7 -20 36 -20
28 0 35 3 32 18 -2 11 -14 18 -36 20 -20 2 -32 9 -32 18 0 10 -12 14 -40 14
-33 0 -40 3 -40 20 0 11 -6 20 -14 20 -7 0 -16 9 -19 21 -5 18 -12 20 -59 17
l-53 -4 3 38 c4 33 1 38 -17 38 -14 0 -21 -6 -21 -20 0 -13 -7 -20 -20 -20
-18 0 -20 7 -20 55 0 42 -3 55 -15 55 -8 0 -15 -9 -15 -19 0 -14 -5 -18 -20
-14 -15 4 -20 14 -20 39 l0 34 55 0 c49 0 55 -2 55 -21 0 -35 34 -19 38 17 2
25 -1 33 -17 37 -27 7 -27 33 0 40 33 9 17 32 -22 32 -32 0 -34 -2 -34 -35 0
-28 -4 -35 -20 -35 -16 0 -20 7 -20 35 0 25 -5 35 -17 38 -15 3 -18 -4 -18
-37z m-70 -161 c0 -11 6 -20 14 -20 16 0 24 -25 18 -52 -8 -33 -32 -20 -32 17
0 28 -4 35 -20 35 -16 0 -20 -7 -20 -34 0 -35 -16 -46 -52 -38 -22 4 -24 32
-3 32 8 0 15 9 15 20 0 13 7 20 20 20 13 0 20 7 20 20 0 13 7 20 20 20 13 0
20 -7 20 -20z m110 -40 c0 -13 -7 -20 -20 -20 -13 0 -20 7 -20 20 0 13 7 20
20 20 13 0 20 -7 20 -20z m0 -180 c0 -13 -7 -20 -20 -20 -13 0 -20 7 -20 20 0
13 7 20 20 20 13 0 20 -7 20 -20z"/>
<path d="M1260 1400 l0 -130 130 0 130 0 0 130 0 130 -130 0 -130 0 0 -130z
m220 0 l0 -90 -90 0 -90 0 0 90 0 90 90 0 90 0 0 -90z"/>
<path d="M1340 1406 l0 -56 56 0 55 0 -3 53 -3 52 -52 3 -53 3 0 -55z"/>
<path d="M333 1452 c-28 -4 -31 -32 -3 -32 13 0 20 -7 20 -20 0 -16 7 -20 35
-20 28 0 35 4 35 20 0 11 -7 20 -15 20 -8 0 -15 6 -15 14 0 16 -24 23 -57 18z"/>
<path d="M533 1361 c3 -14 0 -17 -14 -14 -14 4 -19 0 -19 -16 0 -11 6 -21 14
-21 7 0 16 -9 19 -21 10 -39 32 -15 35 39 3 48 1 52 -19 52 -16 0 -20 -5 -16
-19z"/>
<path d="M316 1342 c-2 -4 -4 -38 -5 -75 0 -60 2 -67 19 -67 13 0 20 -7 20
-20 0 -13 -7 -20 -20 -20 -11 0 -20 -7 -20 -15 0 -8 -7 -15 -15 -15 -8 0 -15
7 -15 15 0 8 -9 15 -20 15 -11 0 -20 -7 -20 -15 0 -23 -66 -20 -72 3 -6 27 2
52 18 52 8 0 14 9 14 19 0 17 -7 19 -52 18 -52 -2 -53 -2 -56 -35 -3 -27 1
-35 17 -39 12 -3 21 -12 21 -19 0 -8 9 -14 20 -14 18 0 20 -7 20 -75 0 -68 -2
-75 -20 -75 -14 0 -20 7 -20 21 0 14 -5 19 -17 17 -13 -2 -18 -13 -18 -38 0
-32 3 -35 33 -38 27 -3 35 1 39 17 4 16 15 21 57 23 37 2 51 7 51 18 0 11 -11
15 -38 15 -30 0 -37 4 -37 20 0 17 7 20 40 20 31 0 40 -4 40 -17 0 -10 6 -18
14 -18 7 0 16 -9 19 -20 3 -11 12 -20 20 -20 8 0 17 -9 20 -20 3 -11 10 -20
17 -20 7 0 14 9 17 20 4 15 14 20 39 20 32 0 34 2 34 35 l0 35 -75 0 -75 0 0
40 c0 33 3 40 20 40 13 0 20 -7 20 -20 0 -16 7 -20 35 -20 28 0 35 4 35 20 0
16 -7 20 -35 20 -24 0 -35 5 -35 15 0 11 12 15 51 15 42 0 52 3 56 19 3 11 14
22 25 24 14 4 19 11 15 21 -5 11 0 16 13 16 11 0 20 7 20 15 0 8 -9 15 -20 15
-13 0 -18 5 -13 16 4 10 -1 17 -15 21 -11 2 -22 13 -25 23 -4 16 -15 19 -71
19 -36 0 -68 -3 -70 -7z m74 -87 c0 -48 -2 -55 -20 -55 -18 0 -20 7 -20 55 0
48 2 55 20 55 18 0 20 -7 20 -55z m70 35 c0 -13 -7 -20 -20 -20 -13 0 -20 7
-20 20 0 13 7 20 20 20 13 0 20 -7 20 -20z m0 -70 c0 -13 -7 -20 -20 -20 -13
0 -20 7 -20 20 0 13 7 20 20 20 13 0 20 -7 20 -20z m-180 -110 c0 -13 -7 -20
-20 -20 -13 0 -20 7 -20 20 0 13 7 20 20 20 13 0 20 -7 20 -20z m110 -110 c0
-13 -7 -20 -20 -20 -13 0 -20 7 -20 20 0 13 7 20 20 20 13 0 20 -7 20 -20z"/>
<path d="M610 1290 c0 -13 -7 -20 -20 -20 -16 0 -20 -7 -20 -35 0 -33 -2 -35
-35 -35 -28 0 -35 -4 -35 -20 0 -11 7 -20 15 -20 8 0 15 -7 15 -15 0 -8 9 -15
20 -15 16 0 20 7 20 34 0 26 5 35 21 39 15 4 20 11 16 21 -5 11 0 16 13 16 16
0 20 7 20 35 0 24 -5 35 -15 35 -8 0 -15 -9 -15 -20z"/>
<path d="M680 1290 c0 -15 5 -20 18 -18 9 2 17 10 17 18 0 8 -8 16 -17 18 -13
2 -18 -3 -18 -18z"/>
<path d="M240 1221 c0 -15 6 -21 21 -21 14 0 19 5 17 17 -5 26 -38 29 -38 4z"/>
<path d="M1410 1219 c0 -16 7 -19 56 -19 47 0 55 3 52 18 -3 13 -15 17 -56 19
-45 1 -52 -1 -52 -18z"/>
<path d="M20 1145 c0 -8 9 -15 20 -15 13 0 20 -7 20 -20 0 -11 6 -20 14 -20 7
0 16 -9 19 -21 9 -33 32 -16 35 26 3 34 1 37 -17 32 -16 -4 -21 0 -21 14 0 15
-7 19 -35 19 -24 0 -35 -5 -35 -15z"/>
<path d="M460 1124 c0 -28 4 -35 17 -32 12 2 18 14 20 36 2 26 -1 32 -17 32
-16 0 -20 -7 -20 -36z"/>
<path d="M640 1125 c0 -28 4 -35 20 -35 16 0 20 7 20 35 0 28 -4 35 -20 35
-16 0 -20 -7 -20 -35z"/>
<path d="M20 1035 c0 -48 2 -55 20 -55 13 0 20 7 20 20 0 11 7 20 15 20 8 0
15 7 15 15 0 8 -9 15 -19 15 -14 0 -18 5 -14 20 4 15 0 20 -16 20 -19 0 -21
-6 -21 -55z"/>
<path d="M1080 1000 c0 -15 5 -20 18 -18 9 2 17 10 17 18 0 8 -8 16 -17 18
-13 2 -18 -3 -18 -18z"/>
<path d="M1190 1000 c0 -15 5 -20 18 -18 9 2 17 10 17 18 0 8 -8 16 -17 18
-13 2 -18 -3 -18 -18z"/>
<path d="M1410 999 c0 -17 -8 -19 -76 -19 -67 0 -75 -2 -72 -17 3 -13 13 -18
41 -18 29 0 37 -4 37 -17 0 -11 -8 -18 -20 -18 -17 0 -20 -7 -20 -40 0 -33 -3
-40 -20 -40 -18 0 -20 7 -20 55 l0 55 -35 0 c-24 0 -35 -5 -35 -15 0 -8 -9
-15 -20 -15 -11 0 -20 7 -20 15 0 10 -11 15 -35 15 -24 0 -35 -5 -35 -15 0 -8
9 -15 20 -15 17 0 20 -7 20 -40 0 -29 4 -40 15 -40 8 0 15 -7 15 -15 0 -8 -7
-15 -15 -15 -8 0 -15 -9 -15 -20 0 -11 7 -20 15 -20 8 0 15 9 15 20 0 13 7 20
20 20 13 0 20 -7 20 -20 0 -12 7 -20 16 -20 9 0 18 9 21 20 9 35 33 24 33 -15
0 -28 4 -35 20 -35 16 0 20 7 20 35 0 28 4 35 20 35 16 0 20 -7 20 -35 0 -24
5 -35 15 -35 10 0 15 11 15 35 0 28 4 35 20 35 14 0 20 -7 20 -21 0 -14 5 -19
18 -17 9 2 16 11 16 21 -1 13 7 17 37 17 28 0 39 4 39 15 0 8 -9 15 -20 15
-13 0 -20 7 -20 20 0 13 7 20 20 20 13 0 20 7 20 20 0 16 -7 20 -35 20 -28 0
-35 -4 -35 -20 0 -13 -7 -20 -20 -20 -13 0 -20 7 -20 20 0 13 -7 20 -20 20
-13 0 -20 7 -20 19 0 14 5 18 20 14 11 -3 20 -12 20 -19 0 -8 10 -14 21 -14
15 0 20 5 17 18 -4 14 2 17 31 17 34 0 36 2 39 37 l3 38 -55 -1 c-48 -1 -56
-4 -56 -20z m-180 -129 l0 -40 -40 0 c-33 0 -40 3 -40 20 0 13 7 20 20 20 13
0 20 7 20 20 0 13 7 20 20 20 17 0 20 -7 20 -40z m180 -20 c0 -17 -7 -20 -39
-20 -34 0 -38 3 -34 20 4 15 14 20 39 20 27 0 34 -4 34 -20z"/>
<path d="M550 914 c0 -64 3 -85 13 -82 7 3 13 29 15 71 l3 66 66 3 c42 2 68 8
71 16 3 9 -18 12 -82 12 l-86 0 0 -86z"/>
<path d="M822 988 c3 -8 29 -14 71 -16 l66 -3 3 -66 c2 -42 8 -68 16 -71 9 -3
12 18 12 82 l0 86 -86 0 c-64 0 -85 -3 -82 -12z"/>
<path d="M280 960 c0 -17 -7 -20 -41 -20 l-40 0 1 -52 c3 -80 1 -88 -15 -88
-8 0 -15 -9 -15 -20 0 -17 -7 -20 -41 -20 -34 0 -41 -3 -37 -17 4 -15 -2 -18
-31 -19 -20 -1 -28 1 -18 3 9 3 17 11 17 19 0 8 7 14 15 14 10 0 15 11 15 35
0 24 -5 35 -15 35 -8 0 -15 -7 -15 -15 0 -8 -9 -15 -20 -15 -18 0 -20 -7 -20
-55 0 -48 2 -55 20 -55 13 0 20 -7 20 -20 0 -13 -7 -20 -20 -20 -11 0 -20 -7
-20 -15 0 -8 9 -15 20 -15 17 0 20 -7 20 -41 0 -34 3 -41 18 -37 13 4 17 -1
17 -19 0 -18 -4 -23 -18 -19 -12 3 -17 -2 -17 -15 0 -12 -7 -19 -20 -19 -19 0
-21 -5 -18 -72 2 -57 6 -73 18 -73 15 0 17 12 19 108 l1 37 55 0 c41 0 55 4
55 14 0 8 -8 17 -17 19 -17 4 -17 5 0 6 9 0 17 8 17 16 0 8 7 15 15 15 8 0 15
-7 15 -15 0 -8 9 -15 20 -15 11 0 20 6 20 14 0 7 9 16 21 19 24 6 21 30 -4 35
-12 2 -17 -3 -17 -17 0 -14 -6 -21 -20 -21 -18 0 -20 7 -20 55 0 48 2 55 20
55 11 0 20 -7 20 -15 0 -8 9 -15 20 -15 13 0 20 -7 20 -20 0 -16 7 -20 35 -20
33 0 35 -2 35 -35 0 -33 2 -35 35 -35 24 0 35 5 35 15 0 8 -8 15 -17 15 -14 0
-18 9 -18 40 0 40 0 40 38 40 36 0 37 1 37 35 0 25 -4 35 -16 35 -9 0 -18 -9
-21 -20 -3 -11 -13 -20 -22 -20 -13 0 -16 7 -13 34 4 31 1 35 -27 41 -17 3
-35 4 -41 0 -5 -3 -10 3 -10 14 0 12 -7 21 -15 21 -8 0 -15 -9 -15 -20 0 -13
-7 -20 -20 -20 -11 0 -20 -7 -20 -15 0 -10 -11 -15 -35 -15 -24 0 -35 5 -35
14 0 8 -8 17 -17 19 -17 4 -17 5 0 6 9 0 17 8 17 15 0 11 15 16 52 18 54 3 78
25 39 35 -27 7 -27 29 -1 36 11 3 20 12 20 21 0 9 -8 16 -20 16 -13 0 -20 7
-20 20 0 13 7 20 20 20 13 0 20 -7 20 -20 0 -11 6 -20 14 -20 7 0 16 -10 19
-21 5 -18 12 -21 41 -17 36 4 36 4 36 -34 0 -37 1 -38 35 -38 33 0 35 2 35 35
0 28 -4 35 -20 35 -13 0 -20 7 -20 20 0 16 -7 20 -35 20 -28 0 -35 4 -35 20 0
13 -7 20 -20 20 -16 0 -20 7 -20 35 0 24 -5 35 -15 35 -8 0 -15 -9 -15 -20z
m-110 -290 c0 -13 -7 -20 -20 -20 -13 0 -20 7 -20 20 0 13 7 20 20 20 13 0 20
-7 20 -20z m110 0 c0 -13 -7 -20 -20 -20 -13 0 -20 7 -20 20 0 13 7 20 20 20
13 0 20 -7 20 -20z m70 -14 c0 -28 -4 -35 -25 -40 -14 -4 -30 -4 -35 -1 -16
10 -12 35 5 35 8 0 15 9 15 20 0 13 7 20 20 20 16 0 20 -7 20 -34z m-220 -56
c0 -13 -7 -20 -20 -20 -13 0 -20 7 -20 20 0 13 7 20 20 20 13 0 20 -7 20 -20z"/>
<path d="M60 925 c0 -8 -9 -15 -20 -15 -14 0 -20 -7 -20 -21 0 -18 5 -21 38
-17 33 3 38 0 38 -17 -1 -16 5 -20 34 -20 25 0 36 5 38 18 2 12 -3 17 -17 17
-15 0 -21 6 -21 21 0 16 -5 20 -20 16 -15 -4 -20 0 -20 14 0 10 -7 19 -15 19
-8 0 -15 -7 -15 -15z"/>
<path d="M422 908 c2 -22 9 -34 21 -36 14 -3 17 4 17 32 0 30 -4 36 -21 36
-17 0 -20 -5 -17 -32z"/>
<path d="M651 886 c-10 -12 -8 -17 8 -26 12 -6 21 -16 21 -22 0 -7 -5 -6 -15
2 -9 7 -18 11 -20 8 -10 -10 23 -28 39 -22 22 8 20 21 -4 36 -27 17 -25 31 3
23 17 -5 19 -4 7 4 -20 14 -25 14 -39 -3z"/>
<path d="M717 894 c-13 -14 -7 -62 9 -68 18 -7 34 0 34 16 0 7 -5 6 -15 -2
-12 -10 -16 -9 -21 4 -3 9 -3 23 0 32 5 14 9 14 23 3 14 -12 16 -12 11 1 -5
17 -30 25 -41 14z"/>
<path d="M786 876 c-3 -13 -9 -32 -13 -43 -6 -16 -5 -16 10 -4 14 11 20 11 32
1 18 -15 19 -4 4 39 -13 37 -25 40 -33 7z m24 -16 c0 -5 -5 -10 -11 -10 -5 0
-7 5 -4 10 3 6 8 10 11 10 2 0 4 -4 4 -10z"/>
<path d="M840 862 c0 -48 6 -53 21 -15 8 21 6 30 -6 42 -13 14 -15 11 -15 -27z"/>
<path d="M882 876 c-9 -20 -9 -33 -3 -39 16 -16 23 -3 19 35 l-4 33 -12 -29z"/>
<path d="M280 815 c0 -8 7 -15 15 -15 8 0 15 7 15 15 0 8 -7 15 -15 15 -8 0
-15 -7 -15 -15z"/>
<path d="M640 730 c0 -40 4 -70 10 -70 6 0 10 21 11 48 l0 47 23 -50 24 -50
25 55 26 55 0 -54 c1 -39 4 -52 12 -44 13 13 7 125 -7 130 -7 2 -20 -19 -30
-47 -10 -27 -21 -50 -25 -50 -4 0 -15 23 -25 50 -26 74 -44 66 -44 -20z"/>
<path d="M810 730 l0 -70 45 0 c25 0 45 5 45 10 0 6 -16 10 -35 10 -28 0 -35
4 -35 20 0 16 7 20 30 20 17 0 30 5 30 10 0 6 -13 10 -30 10 -23 0 -30 4 -30
20 0 16 7 20 35 20 19 0 35 5 35 10 0 6 -20 10 -45 10 l-45 0 0 -70z"/>
<path d="M1450 745 c0 -8 7 -15 15 -15 8 0 15 7 15 15 0 8 -7 15 -15 15 -8 0
-15 -7 -15 -15z"/>
<path d="M550 646 l0 -86 85 0 c50 0 85 4 85 10 0 6 -30 10 -70 10 l-69 0 -3
72 c-2 46 -7 73 -15 76 -10 3 -13 -18 -13 -82z"/>
<path d="M967 723 c-4 -3 -7 -37 -7 -75 l0 -68 -70 0 c-40 0 -70 -4 -70 -10 0
-6 35 -10 85 -10 l85 0 0 85 c0 78 -5 96 -23 78z"/>
<path d="M1173 722 c-13 -2 -23 -10 -23 -18 0 -8 -7 -14 -15 -14 -8 0 -15 7
-15 15 0 8 -9 15 -20 15 -11 0 -20 -7 -20 -15 0 -8 9 -15 20 -15 13 0 20 -7
20 -20 0 -13 -7 -20 -20 -20 -11 0 -20 -7 -20 -15 0 -8 9 -15 20 -15 11 0 20
6 20 14 0 17 21 22 72 18 24 -3 38 -9 38 -18 0 -9 12 -14 35 -14 28 0 35 -4
35 -20 0 -13 7 -20 20 -20 25 0 27 27 3 33 -17 4 -17 5 0 6 9 0 17 8 17 16 0
8 7 15 15 15 8 0 15 -7 15 -15 0 -8 9 -15 20 -15 11 0 20 6 20 14 0 7 9 16 20
19 15 4 20 0 20 -14 0 -12 7 -19 19 -19 14 0 18 -5 14 -20 -7 -25 -73 -30 -73
-5 0 8 -9 15 -20 15 -11 0 -20 -7 -20 -15 0 -8 9 -15 20 -15 16 0 20 -7 20
-35 l0 -35 55 0 55 0 0 90 0 90 -35 0 c-24 0 -35 5 -35 15 0 8 -9 15 -20 15
-11 0 -20 -7 -20 -15 0 -10 -11 -15 -35 -15 -24 0 -35 5 -35 15 0 8 -9 15 -20
15 -11 0 -20 -7 -20 -15 0 -10 -11 -15 -35 -15 -23 0 -35 5 -35 14 0 16 -24
23 -57 18z"/>
<path d="M1152 575 c3 -28 0 -35 -13 -35 -9 0 -19 9 -22 20 -3 11 -12 20 -21
20 -13 0 -16 -11 -16 -55 0 -48 2 -55 20 -55 25 0 27 27 3 33 -10 3 6 5 35 6
39 1 52 5 52 16 0 8 9 15 20 15 16 0 20 -7 20 -35 0 -28 -4 -35 -20 -35 -13 0
-20 -7 -20 -20 0 -16 7 -20 35 -20 l35 0 0 75 0 75 -35 0 c-24 0 -35 5 -35 15
0 9 -9 15 -21 15 -18 0 -21 -5 -17 -35z"/>
<path d="M280 525 c0 -8 7 -15 15 -15 8 0 15 7 15 15 0 8 -7 15 -15 15 -8 0
-15 -7 -15 -15z"/>
<path d="M1340 525 c0 -8 7 -15 15 -15 8 0 15 7 15 15 0 8 -7 15 -15 15 -8 0
-15 -7 -15 -15z"/>
<path d="M240 486 c0 -7 -9 -16 -20 -19 -11 -3 -20 -10 -20 -17 0 -7 9 -14 20
-17 11 -3 20 -12 20 -19 0 -8 9 -14 20 -14 13 0 20 -7 20 -20 0 -17 -7 -20
-40 -20 -39 0 -40 1 -40 35 0 24 -5 35 -15 35 -10 0 -15 -10 -15 -34 0 -33 -2
-35 -37 -38 -26 -2 -38 -8 -38 -18 0 -12 17 -15 89 -17 80 -2 89 0 93 18 4 16
14 19 59 19 47 0 54 -2 54 -20 0 -11 7 -20 15 -20 8 0 15 -7 15 -15 0 -8 9
-15 20 -15 11 0 20 7 20 15 0 8 7 15 16 15 9 0 18 9 21 20 4 15 14 20 39 20
l34 0 0 55 c0 48 -2 55 -20 55 -16 0 -20 -7 -20 -34 0 -35 -16 -46 -52 -38
-24 5 -23 28 2 35 11 3 20 10 20 17 0 7 -9 14 -20 17 -11 3 -20 12 -20 19 0 8
-9 14 -20 14 -16 0 -20 -7 -20 -35 0 -39 -24 -50 -33 -15 -3 11 -12 20 -21 20
-9 0 -16 -8 -16 -20 0 -18 -7 -20 -55 -20 -48 0 -55 2 -55 20 0 13 7 20 20 20
11 0 20 7 20 15 0 8 -9 15 -20 15 -11 0 -20 -6 -20 -14z m180 -106 c0 -13 7
-20 20 -20 13 0 20 -7 20 -20 0 -13 -7 -20 -20 -20 -13 0 -20 7 -20 20 0 11
-7 20 -15 20 -8 0 -15 9 -15 20 0 11 7 20 15 20 8 0 15 -9 15 -20z"/>
<path d="M1300 464 c0 -28 3 -35 18 -32 11 2 18 14 20 36 3 27 0 32 -17 32
-17 0 -21 -6 -21 -36z"/>
<path d="M640 451 c0 -12 -7 -21 -15 -21 -8 0 -15 -7 -15 -15 0 -8 8 -15 18
-15 14 0 17 -7 14 -40 -3 -26 -9 -40 -18 -40 -8 0 -14 -7 -14 -15 0 -10 11
-15 35 -15 23 0 35 5 35 14 0 7 9 16 20 19 15 4 20 14 20 37 0 23 -5 33 -20
37 -26 7 -26 29 1 36 33 9 17 32 -24 35 -32 3 -37 0 -37 -17z"/>
<path d="M900 450 c0 -19 -7 -20 -90 -20 -73 0 -90 -3 -90 -15 0 -8 6 -15 14
-15 10 0 16 -13 18 -37 2 -26 8 -38 18 -38 10 0 16 12 18 38 2 27 8 37 20 37
13 0 17 -9 17 -37 0 -28 5 -38 18 -41 14 -3 17 4 17 37 0 34 3 41 20 41 13 0
20 -7 20 -20 0 -11 7 -20 15 -20 8 0 15 9 15 20 0 11 -7 20 -15 20 -8 0 -15 7
-15 15 0 15 16 19 53 16 11 -2 17 5 17 18 0 17 -6 21 -35 21 -28 0 -35 -4 -35
-20z"/>
<path d="M1010 415 c0 -48 -2 -55 -20 -55 -12 0 -20 -7 -20 -16 0 -9 9 -18 20
-21 11 -3 20 -12 20 -19 0 -9 12 -14 34 -14 33 0 35 -2 38 -37 3 -35 6 -38 36
-41 27 -3 32 0 32 17 0 12 -6 21 -14 21 -7 0 -16 9 -19 20 -4 14 0 20 13 20
10 0 20 -9 23 -20 3 -11 12 -20 21 -20 12 0 16 -10 16 -35 0 -36 -7 -40 -52
-36 -12 2 -18 -5 -18 -18 0 -12 6 -21 14 -21 7 0 16 -9 19 -20 7 -26 27 -26
34 0 8 28 68 28 76 0 3 -11 12 -20 21 -20 9 0 16 -7 16 -15 0 -12 -13 -15 -55
-15 -48 0 -55 -2 -55 -20 0 -19 7 -20 110 -20 105 0 110 1 110 21 0 18 -5 21
-37 18 -33 -4 -38 -1 -38 17 0 15 5 20 18 16 12 -3 17 2 17 17 0 28 36 28 43
0 3 -11 11 -19 19 -18 30 4 48 -2 48 -16 0 -8 9 -15 20 -15 11 0 20 7 20 15 0
8 -9 15 -20 15 -13 0 -20 7 -20 20 0 16 -7 20 -35 20 -33 0 -35 2 -35 34 0 26
5 35 21 39 16 4 20 12 17 39 -2 22 -9 34 -20 36 -15 3 -18 -4 -18 -37 0 -34
-3 -41 -20 -41 -17 0 -20 7 -20 40 0 33 3 40 20 40 11 0 20 6 20 14 0 7 9 16
21 19 33 9 17 32 -24 35 -28 2 -37 8 -37 21 0 15 -9 19 -51 20 -43 1 -52 -2
-56 -19 -6 -24 -33 -27 -33 -4 0 9 -9 18 -20 21 -11 3 -20 12 -20 19 0 8 -10
14 -21 14 -16 0 -20 -5 -16 -19 3 -14 0 -17 -14 -14 -11 3 -19 12 -19 19 0 10
-13 14 -40 14 -33 0 -40 3 -40 20 0 11 -7 20 -15 20 -12 0 -15 -13 -15 -55z
m110 -35 c0 -11 6 -20 14 -20 7 0 16 -9 19 -20 4 -17 0 -20 -34 -20 -32 0 -39
3 -39 20 0 13 -7 20 -20 20 -13 0 -20 7 -20 20 0 17 7 20 40 20 33 0 40 -3 40
-20z m220 -112 l0 -58 -57 0 -58 0 0 58 0 57 57 0 58 0 0 -57z m0 -108 c0 -17
-7 -20 -40 -20 -33 0 -40 3 -40 20 0 17 7 20 40 20 33 0 40 -3 40 -20z"/>
<path d="M1267 284 c-14 -15 -6 -34 14 -34 14 0 19 5 17 17 -3 18 -20 27 -31
17z"/>
<path d="M1375 460 c-8 -14 3 -30 21 -30 8 0 14 -7 14 -15 0 -8 9 -15 20 -15
13 0 20 -7 20 -20 0 -16 7 -20 36 -20 28 0 35 3 32 18 -2 11 -14 18 -36 20
-32 3 -48 32 -17 32 8 0 15 9 15 20 0 11 -7 20 -15 20 -8 0 -15 -9 -15 -20 0
-13 -7 -20 -20 -20 -13 0 -20 7 -20 20 0 21 -24 28 -35 10z"/>
<path d="M90 415 c0 -8 9 -15 20 -15 11 0 20 7 20 15 0 8 -9 15 -20 15 -11 0
-20 -7 -20 -15z"/>
<path d="M310 305 c0 -8 9 -15 20 -15 11 0 20 7 20 15 0 8 -9 15 -20 15 -11 0
-20 -7 -20 -15z"/>
<path d="M530 285 c0 -24 -5 -35 -15 -35 -8 0 -15 -9 -15 -20 0 -13 -7 -20
-20 -20 -11 0 -20 -7 -20 -15 0 -8 -9 -15 -20 -15 -16 0 -20 7 -20 35 0 33 -2
35 -35 35 -28 0 -35 -4 -35 -20 0 -13 -7 -20 -19 -20 -17 0 -19 -7 -18 -52 2
-40 6 -53 17 -53 11 0 16 14 18 53 3 44 6 52 23 52 16 0 19 -7 19 -55 0 -48
-2 -55 -20 -55 -16 0 -20 -7 -20 -35 0 -25 4 -35 16 -35 9 0 18 9 21 20 7 26
29 26 36 0 5 -18 14 -20 111 -20 101 0 106 1 106 21 0 16 -5 20 -19 16 -14 -3
-17 0 -14 14 4 14 0 19 -16 19 -11 0 -21 -6 -21 -14 0 -9 -14 -15 -37 -17 -33
-4 -38 -1 -38 16 0 16 7 20 35 20 33 0 35 2 35 34 0 39 -23 55 -32 22 -7 -27
-29 -27 -36 -1 -4 15 0 20 14 20 11 0 19 7 19 18 0 14 8 17 55 15 49 -2 55 0
55 17 0 16 -7 20 -35 20 -33 0 -35 2 -35 35 0 28 -4 35 -20 35 -16 0 -20 -7
-20 -35z"/>
<path d="M900 265 c0 -48 -2 -55 -20 -55 -11 0 -20 -6 -20 -14 0 -15 -25 -24
-52 -18 -22 4 -24 32 -3 32 8 0 15 9 15 20 0 16 -7 20 -35 20 -28 0 -35 4 -35
20 0 11 -7 20 -15 20 -11 0 -15 -11 -15 -40 0 -33 -3 -40 -20 -40 -11 0 -20
-7 -20 -15 0 -10 -11 -15 -35 -15 -28 0 -35 -4 -35 -20 0 -11 6 -20 14 -20 7
0 16 -9 19 -20 7 -25 27 -26 34 -1 3 11 14 22 25 24 14 4 19 11 15 21 -5 11 0
16 13 16 13 0 20 -7 20 -20 0 -11 -7 -20 -15 -20 -8 0 -15 -9 -15 -20 0 -11 7
-20 15 -20 8 0 15 9 15 19 0 15 9 20 38 23 54 5 69 0 75 -24 9 -32 32 -15 35
25 2 24 8 37 18 37 11 0 14 16 14 70 0 56 -3 70 -15 70 -12 0 -15 -13 -15 -55z"/>
<path d="M20 160 l0 -130 130 0 130 0 0 130 0 130 -130 0 -130 0 0 -130z m220
0 l0 -90 -90 0 -90 0 0 90 0 90 90 0 90 0 0 -90z"/>
<path d="M92 158 l3 -53 53 -3 52 -3 0 55 0 56 -56 0 -55 0 3 -52z"/>
<path d="M1482 233 c2 -10 10 -18 18 -18 8 0 16 8 18 18 2 12 -3 17 -18 17
-15 0 -20 -5 -18 -17z"/>
<path d="M1010 176 c0 -33 -2 -35 -37 -38 -49 -4 -53 -32 -5 -36 27 -3 35 1
39 17 3 12 12 21 19 21 9 0 14 12 14 35 0 24 -5 35 -15 35 -10 0 -15 -10 -15
-34z"/>
<path d="M1080 120 c0 -14 -7 -20 -21 -20 -15 0 -20 -5 -17 -18 4 -15 -1 -17
-34 -14 -33 4 -38 1 -38 -17 0 -19 6 -21 55 -21 48 0 55 2 55 20 0 13 7 20 20
20 13 0 20 -7 20 -20 0 -11 7 -20 15 -20 10 0 15 11 15 35 0 28 -4 35 -19 35
-14 0 -18 5 -14 20 4 15 0 20 -16 20 -14 0 -21 -6 -21 -20z"/>
<path d="M900 85 c0 -8 7 -15 15 -15 8 0 15 7 15 15 0 8 -7 15 -15 15 -8 0
-15 -7 -15 -15z"/>
<path d="M757 64 c-14 -15 -6 -34 14 -34 14 0 19 5 17 17 -3 18 -20 27 -31 17z"/>
<path d="M825 61 c-11 -19 5 -31 41 -31 28 0 35 4 32 18 -4 19 -62 30 -73 13z"/>
</g>
</svg>
